<?xml version="1.0" encoding="UTF-8" standalone="no"?>
<svg
   
   
   
   
   xmlns="http://www.w3.org/2000/svg"
   viewBox="0 0 2000 2000"
   height="2000"
   width="2000"
   id="svg1621"
   version="1.1">
  <metadata
     id="metadata1627">
    
  </metadata>
  <defs
     id="defs1625" />
  <path
     id="path1681"
     d="m 571.75424,571.22414 c -1.32813,0.0348 -2.95148,0.82528 -4.42773,2.21484 -1.79103,1.68585 -1.89166,2.39134 -2.48242,17.23633 -0.36733,9.23049 -0.36524,9.22498 -4.26758,7.29687 -4.72466,-2.33441 -11.12986,-0.90816 -14.78516,3.29297 -0.9434,1.08428 -5.40364,9.66127 -6.66015,12.8086 -1.85239,4.63989 -2.90617,14.52571 -1.99414,18.70508 1.55919,7.14501 5.50276,12.17573 10.0332,12.79882 5.58127,0.76763 9.26312,-1.60864 12.40234,-8.0039 2.16021,-4.40079 3.57618,-7.66757 3.57618,-8.25 0,-0.28173 0.20991,-0.90334 0.46484,-1.38086 0.25492,-0.47752 0.58543,-1.26289 0.73437,-1.74414 0.14895,-0.48125 0.47713,-0.875 0.73047,-0.875 0.53231,0 2.57032,4.13501 2.57032,5.21484 0,0.39927 0.225,0.8652 0.5,1.03516 0.275,0.16996 0.5,1.1616 0.5,2.20312 0,1.04152 0.3128,2.5472 0.69531,3.34571 0.38251,0.7985 1.09852,2.35117 1.58984,3.45117 2.38775,5.34581 5.67418,7.75 10.59571,7.75 3.33427,0 4.44742,-0.38119 6.7832,-2.32422 1.85711,-1.54486 2.33594,-1.48312 2.33594,0.30078 0,1.9108 0.92547,4.04933 2.22265,5.13867 0.56579,0.47513 1.86644,0.869 2.89063,0.875 2.77471,0.0166 3.38189,-1.51915 3.40429,-8.58984 0.0178,-5.6133 1.00095,-15.82263 1.89063,-19.65039 0.86842,-3.73631 2.06367,-7.0138 4.33398,-11.88672 2.81019,-6.0317 5.50649,-7.47533 7.91993,-4.23828 2.06602,2.77108 2.86624,7.90528 1.61132,10.33203 -0.72304,1.3982 -1.03238,1.56464 -2.66992,1.4375 -1.57703,-0.12244 -1.87557,0.0183 -2.00781,0.94726 -0.34177,2.40069 3.82188,2.62609 5.98437,0.32422 1.03353,-1.10014 1.15026,-1.70887 1.16016,-6.06836 0.01,-4.24089 -0.15684,-5.20112 -1.33398,-7.67382 -2.26352,-4.75475 -4.41205,-5.50344 -7.97852,-2.78321 -1.9818,1.51157 -4.28122,5.25262 -6.06055,9.85938 -0.26554,0.6875 -0.68286,1.64162 -0.92578,2.11914 -0.24291,0.47752 -0.4414,1.06735 -0.4414,1.3125 0,0.87553 -1.56388,4.17049 -1.84571,3.88867 -0.4958,-0.4958 -1.63408,-8.43528 -1.64453,-11.47266 -0.012,-3.47703 -0.86372,-7.26766 -1.90625,-8.47265 -1.06975,-1.23647 -4.66795,-1.18308 -5.8164,0.0859 -0.76639,0.84684 -0.83362,1.71857 -0.56836,7.375 0.16545,3.52805 0.42564,11.23224 0.57812,17.12109 0.27063,10.45168 0.24889,10.75979 -0.86914,12.93359 -1.50571,2.92758 -4.22666,5.60938 -5.69141,5.60938 -1.32373,0 -3.11612,-2.00522 -3.53515,-3.95508 -0.15292,-0.71157 -0.47021,-1.74492 -0.70508,-2.29492 -0.23487,-0.55 -0.54553,-1.675 -0.68945,-2.5 -0.14393,-0.825 -0.49671,-2.625 -0.78516,-4 -3.16395,-15.08208 -4.00904,-36.15167 -2.20312,-54.93945 0.31255,-3.25164 -0.27165,-4.91225 -2,-5.6875 -0.36104,-0.16194 -0.77018,-0.23427 -1.2129,-0.22266 z m 139.33204,0.78515 c -0.32767,0.0258 -0.63418,0.13814 -1.00196,0.32813 -2.01407,1.04046 -3.43554,2.61003 -3.43554,3.79492 0,0.62333 -0.18944,1.25087 -0.42188,1.39453 -0.54524,0.33697 -1.26939,14.6948 -1.27539,25.29688 -0.004,7.23009 0.57363,15.97381 1.51563,22.9082 0.25239,1.85795 0.005,2.72928 -1.77735,6.26172 -3.99011,7.90645 -7.15392,11.11231 -10.88672,11.03125 -2.51479,-0.0546 -4.01913,-1.28887 -6.94922,-5.70117 -4.50925,-6.79028 -5.16608,-10.12616 -5.37304,-27.26172 -0.0963,-7.97067 -0.17529,-8.61496 -1.24219,-10.11328 -3.0851,-4.33263 -10.33254,-2.46329 -15.70117,4.04883 -1.16844,1.4173 -2.24361,2.68867 -2.38867,2.82617 -0.14506,0.1375 -1.27143,1.4875 -2.50391,3 -3.14625,3.86107 -3.30045,4 -4.45899,4 -0.9977,0 -1.0371,-0.25245 -1.0371,-6.92188 0,-7.54562 -0.54913,-9.66711 -2.77149,-10.67969 -1.62535,-0.74055 -5.45559,1.48478 -5.96094,3.4629 -0.70419,2.75648 -1.33178,10.17805 -2.54687,30.13867 -0.30242,4.96786 -0.99985,8 -1.8418,8 -0.20787,0 -0.38172,0.28125 -0.38672,0.625 -0.0219,1.50268 -5.0494,6.875 -6.43359,6.875 -1.41533,0 -3.05859,-1.91456 -3.05859,-3.56446 0,-0.75692 -0.20132,-1.50033 -0.44727,-1.65234 -0.24595,-0.152 -0.61181,-1.23382 -0.81445,-2.4043 -0.5309,-3.06685 -0.559,-23.85496 -0.0391,-28.94922 0.42884,-4.20179 0.40998,-4.33697 -0.70117,-4.93164 -1.0513,-0.56263 -5.67144,-0.49066 -6.25976,0.0977 -2.11179,2.11179 -0.91062,37.31066 1.32031,38.68946 0.2433,0.15036 0.44141,0.6332 0.44141,1.07226 0,1.26997 2.42373,4.10474 4.16015,4.86524 0.87431,0.38292 2.03985,0.71021 2.58985,0.72851 2.67928,0.0891 8.04464,-2.99591 9.33007,-5.36523 0.34724,-0.64004 1.0283,-1.375 1.51368,-1.63477 0.72479,-0.3879 0.93623,-0.22427 1.18359,0.91407 0.91639,4.21702 4.2045,6.24447 7.38086,4.55273 1.92953,-1.02768 2.30967,-2.02629 2.32617,-6.11133 0.0502,-12.45266 2.49086,-21.00839 8.59375,-30.13672 4.68101,-7.00156 8.1167,-9.50359 10.02148,-7.29492 0.92186,1.06892 1.9004,6.90734 1.9004,11.33789 0,4.68507 1.19169,12.10661 2.49414,15.53711 1.83336,4.82889 4.81324,9.6977 7.44922,12.16992 2.72096,2.55195 4.40896,3.22876 8.04882,3.22266 4.35503,-0.007 7.24944,-1.42394 11.86328,-5.80664 3.83249,-3.6405 3.89144,-3.64271 4.32422,-0.0859 0.94128,7.73588 1.67711,8.92349 5.36133,8.65625 1.84483,-0.13381 2.30244,-0.39893 3.13086,-1.82227 1.02592,-1.76268 1.01743,-1.86813 -0.69141,-9.46484 -0.26379,-1.1727 -0.48046,-4.86779 -0.48046,-8.21094 0,-4.9544 0.15365,-6.24884 0.82812,-6.99414 1.02369,-1.13114 1.26913,-1.13472 2.50781,-0.0391 0.82728,0.73177 5.1395,6.69793 6.91407,9.56641 0.275,0.44451 0.62464,0.92109 0.77539,1.05859 0.15075,0.1375 0.80404,1.0375 1.45312,2 1.88806,2.79977 6.08551,6.6475 8.70313,7.97852 1.88941,0.96073 3.1536,1.22342 5.79687,1.19922 2.93674,-0.0269 3.67671,-0.23608 5.63867,-1.58594 2.60369,-1.79138 5.14805,-4.73719 8.80274,-10.19336 2.69303,-4.02048 3.14101,-5.57543 1.75976,-6.10547 -1.70892,-0.65577 -2.43163,-0.0454 -4.67968,3.95703 -0.49828,0.88715 -1.20853,2.15022 -1.57813,2.80664 -1.14493,2.03338 -5.29898,5.88033 -7.2168,6.68164 -2.4819,1.03701 -4.29867,0.95901 -6.97461,-0.29883 -2.79165,-1.31223 -5.26074,-4.19903 -11.11328,-12.98437 -4.15715,-6.24037 -4.8381,-7.5948 -4.67382,-9.30273 0.0317,-0.32924 3.54414,-4.10737 7.80664,-8.39454 4.2625,-4.28716 7.75,-8.07842 7.75,-8.42578 0,-0.7988 -1.01258,-1.83203 -1.79688,-1.83203 -0.32906,0 -3.1532,2.62433 -6.27539,5.83203 -11.30742,11.61712 -12.45988,12.52339 -14.37891,11.31055 -0.91203,-0.57641 -0.9449,-3.65379 -0.29492,-28.16211 l 0.37891,-14.26953 -2.00781,-0.9043 c -1.03876,-0.46841 -1.64139,-0.66416 -2.1875,-0.62109 z m 193.29687,2.91016 c -2.63583,0.009 -6.62228,1.896 -9.31641,4.5332 -3.45806,3.385 -5.12961,7.6175 -5.67773,14.3711 -1.00242,12.35114 -1.26421,16.70759 -1.50977,25.25 -0.15019,5.225 -0.3805,10.01327 -0.51367,10.64062 -0.59089,2.78343 -9.23519,9.10938 -12.44726,9.10938 -1.39554,0 -2.08984,-0.52872 -3.14453,-2.39453 l -1.25,-2.21094 c -1.63787,-2.89749 -3.59403,-3.51787 -5.61524,-1.7793 -1.08334,0.93185 -1.3935,1.65265 -1.4375,3.33203 -0.0504,1.92153 0.16554,2.3434 2.10352,4.09766 1.18828,1.07563 2.34043,1.95508 2.56054,1.95508 0.22011,0 0.75402,0.74488 1.18555,1.65429 0.67152,1.41514 0.71448,2.62233 0.30664,8.37501 -0.52516,7.40752 -1.12347,12.172 -1.91406,15.2207 -0.28525,1.1 -0.67686,2.675 -0.86914,3.5 -1.04974,4.50403 -3.97239,5.10044 -4.90039,1 -0.18672,-0.825 -0.56774,-2.4 -0.84766,-3.5 -1.71143,-6.72547 -2.22599,-12.11613 -2.73047,-28.57617 -0.43936,-14.33516 -0.26155,-15.20183 3.94922,-19.17383 3.70815,-3.49788 6.89461,-7.71228 8.60156,-11.37696 2.06114,-4.42506 2.2055,-4.86839 3.68164,-11.2539 0.69388,-3.00157 0.73389,-15.69696 0.0508,-16.11914 -0.275,-0.16996 -0.5,-0.84245 -0.5,-1.49414 0,-1.51447 -2.87115,-4.57924 -4.72657,-5.04493 -0.31372,-0.0787 -0.66252,-0.11448 -1.03906,-0.11328 -2.63577,0.008 -6.62228,1.89405 -9.31641,4.53125 -3.45806,3.385 -5.12961,7.6175 -5.67773,14.3711 -1.06062,13.06825 -1.28237,16.86752 -1.55273,26.73633 -0.3425,12.50226 -0.23924,12.22154 -4.48438,12.24804 -3.54102,0.0221 -4.06833,-0.70286 -4.35742,-5.98437 -0.12795,-2.3375 -0.49244,-5.375 -0.81055,-6.75 -0.31812,-1.375 -0.7094,-3.175 -0.86914,-4 -0.15974,-0.825 -0.45765,-1.725 -0.66015,-2 -0.20254,-0.275 -0.50635,-1.0814 -0.67579,-1.79297 -0.72988,-3.06505 -3.5797,-5.18211 -6.25781,-4.64649 -3.54057,0.70812 -6.08274,4.70589 -6.1289,9.63868 -0.0526,5.6154 2.04462,8.73413 9.55664,14.20507 3.01885,2.19861 3.11633,3.51614 0.61523,8.35743 -2.98226,5.77267 -3.16184,5.98828 -4.94727,5.98828 -1.1154,0 -2.0576,-0.46581 -3.15234,-1.56055 -1.95733,-1.95733 -5.51562,-7.15904 -5.51562,-8.0625 0,-0.37259 -0.18493,-0.89109 -0.41211,-1.15234 -0.38965,-0.44808 -0.77056,-1.66526 -2.04688,-6.53321 -0.29677,-1.1319 -0.54101,-4.64674 -0.54101,-7.8125 0,-6.14196 0.54976,-8.36257 2.50586,-10.13281 1.52938,-1.38408 2.10073,-2.62169 1.73828,-3.76367 -0.36834,-1.16055 -1.49691,-1.24236 -3.80664,-0.27539 -5.10552,2.13742 -7.37439,7.8872 -7.78321,19.73437 l -0.21289,6.18946 -3.85351,3.81054 c -6.08966,6.01961 -11.19924,7.98352 -14.13086,5.4336 -3.22813,-2.80782 -7.41749,-9.98651 -8.82813,-15.125 -1.44937,-5.27954 -1.6289,-6.37945 -1.6289,-10.02344 0,-5.79126 2.53539,-12.26476 5.4082,-13.80859 1.60012,-0.85991 2.60672,-0.10808 3.5039,2.61523 0.40176,1.21951 0.9065,2.6668 1.1211,3.2168 0.21459,0.55 0.51731,1.59439 0.67383,2.32031 0.31028,1.43901 1.34047,2.07318 2.58984,1.59375 0.59126,-0.2269 0.71903,-0.70563 0.49609,-1.85938 -0.16513,-0.85455 -0.44148,-2.51634 -0.61328,-3.6914 -0.17181,-1.17507 -0.50757,-2.25688 -0.74609,-2.4043 -0.23853,-0.14741 -0.43359,-0.65389 -0.43359,-1.125 0,-0.47111 -0.69013,-1.69359 -1.53516,-2.71875 -1.42753,-1.73185 -1.72913,-1.86523 -4.23633,-1.86523 -3.31097,0 -5.65887,1.20927 -8.60547,4.42773 -2.32778,2.54255 -4.75587,7.18648 -5.39648,10.32227 -1.18611,5.80602 0.11398,15.44782 2.93359,21.75 0.92233,2.06152 3.44537,5.67675 4.77344,6.84179 2.33279,2.04644 7.78032,4.15821 10.72656,4.15821 5.12219,0 13.53339,-4.18111 17.2168,-8.5586 1.31073,-1.55772 2.62305,-1.89974 2.62305,-0.68359 0,0.72004 0.23173,1.28253 1.59179,3.86719 0.32559,0.61875 0.89436,1.7224 1.26367,2.45312 0.96167,1.90273 4.22622,5.14069 6.15235,6.10157 0.96523,0.48153 2.86088,0.82031 4.58008,0.82031 5.30932,0 8.15699,-2.82249 11.47656,-11.375 1.12991,-2.9111 1.65474,-3.625 2.66992,-3.625 0.58603,0 1.31689,0.25048 1.62305,0.55664 0.49618,0.49618 1.88222,0.46081 5.39258,-0.13672 0.96325,-0.16397 1.01222,0.19752 1.33593,9.83008 0.36158,10.75954 0.83731,14.97747 2.39649,21.25 1.80527,7.26253 2.57248,9.08483 4.39844,10.44727 1.80011,1.3432 5.32508,1.38199 7.45703,0.082 2.12418,-1.29522 3.625,-4.85833 4.43554,-10.5293 0.17687,-1.2375 0.52862,-3.7125 0.78125,-5.5 0.25264,-1.7875 0.66456,-5.6125 0.91602,-8.5 0.25147,-2.8875 0.61753,-5.89123 0.8125,-6.67578 0.52665,-2.11916 3.19974,-4.50065 6.52344,-5.8125 1.61958,-0.63924 3.93651,-1.91714 5.15039,-2.83789 1.21388,-0.92076 2.38186,-1.67383 2.5957,-1.67383 0.21384,0 0.49516,4.44375 0.625,9.875 0.21213,8.87298 0.59904,13.30505 1.55664,17.875 0.29671,1.416 0.63711,2.77839 1.87305,7.5 1.37601,5.25673 3.2939,7.25105 6.9707,7.24805 4.69955,-0.004 7.01728,-3.25584 8.19531,-11.49805 0.17687,-1.2375 0.52862,-3.7125 0.78125,-5.5 0.25264,-1.7875 0.66456,-5.6125 0.91602,-8.5 0.25147,-2.8875 0.61753,-5.89123 0.8125,-6.67578 0.53959,-2.17125 3.29328,-4.58019 6.73828,-5.89258 1.94296,-0.74018 4.20925,-2.16479 6.07031,-3.81641 2.71557,-2.40997 3.90821,-2.88375 3.90821,-1.55078 0,0.64749 2.89895,4.87818 4.23828,6.18555 2.40036,2.34307 5.12883,3.33767 9.20898,3.35547 3.34476,0.0146 4.3629,-0.20188 7.10352,-1.51172 3.39072,-1.62055 3.95214,-2.05114 8.73242,-6.68946 2.14487,-2.08116 3.27971,-2.84757 3.875,-2.61914 0.46301,0.17767 0.8418,0.65046 0.8418,1.05274 0,0.82955 2.69285,4.90357 4.23828,6.41211 2.40036,2.34307 5.12883,3.33767 9.20898,3.35547 5.69756,0.0249 9.24345,-1.78128 15.3086,-7.79297 4.94346,-4.89992 5.93161,-6.16572 8.25781,-10.58789 1.62573,-3.09057 1.42536,-4.22461 -0.7461,-4.22461 -0.82463,0 -1.414,0.61085 -2.29492,2.375 -3.06572,6.13947 -8.63564,12.35386 -13.85937,15.46289 -1.90106,1.13146 -2.30488,1.20468 -3.62891,0.65625 -1.32768,-0.54994 -2.56413,-1.74073 -4.98437,-4.79883 -0.4125,-0.52122 -1.28085,-2.07103 -1.92969,-3.44531 -0.64885,-1.37429 -1.3801,-2.88967 -1.625,-3.36719 -0.24491,-0.47752 -0.44531,-1.3082 -0.44531,-1.8457 0,-0.53751 -0.225,-1.11715 -0.5,-1.28711 -0.275,-0.16996 -0.5,-1.17838 -0.5,-2.24219 0,-2.12532 1.09028,-3.32559 4.10546,-4.52148 4.5634,-1.80995 8.89454,-7.75345 8.89454,-12.20313 0,-7.2056 -8.96688,-11.73815 -15.07618,-7.62109 -2.19858,1.48162 -5.1402,5.44329 -5.94922,8.01172 -0.35964,1.14172 -0.80842,2.30117 -0.99609,2.57617 -1.05418,1.54473 -1.37576,8.95647 -0.71289,16.4082 l 0.34766,3.90625 -4.29492,4.19141 c -2.36228,2.30449 -5.3194,4.78839 -6.57032,5.52148 -2.03007,1.1897 -2.43449,1.26736 -3.76367,0.7168 -1.32768,-0.54994 -2.56413,-1.74073 -4.98437,-4.79883 -0.4125,-0.52122 -1.28085,-2.07103 -1.92969,-3.44531 -0.64885,-1.37429 -1.3801,-2.88967 -1.625,-3.36719 -0.24491,-0.47752 -0.44531,-1.3082 -0.44531,-1.8457 0,-0.53751 -0.225,-1.11715 -0.5,-1.28711 -0.275,-0.16996 -0.5,-1.17838 -0.5,-2.24219 0,-2.12532 1.09028,-3.32559 4.10546,-4.52148 4.5634,-1.80995 8.89454,-7.75345 8.89454,-12.20313 0,-7.2056 -8.96688,-11.73815 -15.07618,-7.62109 -2.19858,1.48162 -5.1402,5.44329 -5.94922,8.01172 -0.35964,1.14172 -0.80842,2.30117 -0.99609,2.57617 -1.51228,2.216 -1.43461,15.37413 0.10938,18.5625 0.36966,0.76335 0.3362,1.39684 -0.11914,2.25 -1.7132,3.20992 -9.27148,8.4375 -12.19922,8.4375 -1.39554,0 -2.08984,-0.52872 -3.14453,-2.39453 l -1.25,-2.21094 c -1.63787,-2.89749 -3.59403,-3.51787 -5.61524,-1.7793 -1.08334,0.93185 -1.3935,1.65265 -1.4375,3.33203 -0.0504,1.92153 0.16554,2.3434 2.10352,4.09766 1.18828,1.07563 2.34043,1.95508 2.56054,1.95508 0.22011,0 0.75402,0.74488 1.18555,1.65429 0.67152,1.41514 0.71448,2.62233 0.30664,8.37501 -0.52516,7.40752 -1.12347,12.172 -1.91406,15.2207 -0.28525,1.1 -0.67686,2.675 -0.86914,3.5 -1.04974,4.50403 -3.97239,5.10044 -4.90039,1 -0.18672,-0.825 -0.56774,-2.4 -0.84766,-3.5 -1.73529,-6.81921 -2.24412,-12.24143 -2.73437,-29.1543 -0.42217,-14.56411 -0.33914,-14.964 3.81836,-18.58008 3.49352,-3.03857 6.9375,-7.53066 8.73632,-11.39258 2.06114,-4.42506 2.2055,-4.86839 3.68164,-11.2539 0.69388,-3.00157 0.73389,-15.69696 0.0508,-16.11914 -0.275,-0.16996 -0.5,-0.84245 -0.5,-1.49414 0,-1.51447 -2.87115,-4.57924 -4.72657,-5.04493 -0.31372,-0.0787 -0.66251,-0.11645 -1.03906,-0.11523 z m -35.46094,4.16016 c 1.18679,0.045 2.72657,1.30495 2.72657,2.39843 0,0.43277 0.225,0.92575 0.5,1.09571 0.67826,0.41919 0.64674,13.32568 -0.0391,15.9414 -1.27164,4.8501 -1.75062,6.21937 -3.16797,9.0586 -0.82369,1.65 -1.62979,3.1125 -1.79296,3.25 -0.16318,0.1375 -0.84387,1.0375 -1.51172,2 -0.66786,0.9625 -1.85439,2.45934 -2.63672,3.32617 -1.60411,1.77735 -2.82533,2.25776 -4.0293,1.58398 -1.67097,-0.93512 -0.8302,-9.20876 2.17774,-21.41015 0.73578,-2.98464 1.4842,-6.40174 1.80664,-8.25 0.68834,-3.94556 3.33462,-8.25698 5.48437,-8.93555 0.14955,-0.0472 0.31288,-0.065 0.48242,-0.0586 z m 36,0 c 1.18679,0.045 2.72657,1.30495 2.72657,2.39843 0,0.43277 0.225,0.92575 0.5,1.09571 0.67826,0.41919 0.64674,13.32568 -0.0391,15.9414 -1.27164,4.8501 -1.75062,6.21937 -3.16797,9.0586 -0.82369,1.65 -1.62979,3.1125 -1.79296,3.25 -0.16318,0.1375 -0.84387,1.0375 -1.51172,2 -0.66786,0.9625 -1.85439,2.45934 -2.63672,3.32617 -1.60411,1.77735 -2.82533,2.25776 -4.0293,1.58398 -1.67097,-0.93512 -0.8302,-9.20876 2.17774,-21.41015 0.73578,-2.98464 1.4842,-6.40174 1.80664,-8.25 0.68834,-3.94556 3.33462,-8.25698 5.48437,-8.93555 0.14955,-0.0472 0.31288,-0.065 0.48242,-0.0586 z M 628.7894,591.19093 c -1.62784,0.13418 -2.91317,2.78371 -1.51562,4.39844 1.14511,1.32309 2.58525,0.65138 3.10351,-1.44726 0.40407,-1.63624 0.33779,-2.03361 -0.43359,-2.59766 -0.3834,-0.28035 -0.77864,-0.38448 -1.1543,-0.35352 z m -72.41406,9.13282 c 5.5743,0 8.79337,8.56633 6.29297,16.75 -0.33609,1.1 -0.7288,2.73456 -0.8711,3.63086 -0.14229,0.8963 -0.45851,1.75311 -0.70312,1.90429 -0.24462,0.15118 -0.44531,0.75099 -0.44531,1.33399 0,0.58299 -0.20848,1.75118 -0.46485,2.5957 -0.25636,0.84453 -0.73166,2.54766 -1.05664,3.78516 -1.23901,4.71807 -2.33849,6.84499 -4.83984,9.36914 -1.65402,1.66909 -2.47664,2.13086 -3.79688,2.13086 -2.36802,0 -4.34179,-2.59552 -4.34179,-5.71094 0,-0.94833 -0.23329,-2.33892 -0.51954,-3.0918 -0.28624,-0.75287 -0.52525,-4.25612 -0.53125,-7.78515 -0.0129,-7.56972 0.30915,-8.87417 4.10743,-16.66016 2.44097,-5.00368 5.26183,-8.25195 7.16992,-8.25195 z m 380.23437,0.12304 c 0.27124,-0.008 0.5462,0.0225 0.82227,0.0918 2.66703,0.66939 4.16781,4.1233 3.45117,7.94336 -0.41643,2.21976 -3.22762,5.56359 -5.76758,6.85938 -2.00829,1.02455 -3.06819,1.215 -3.63281,0.65039 -0.57555,-0.57555 -0.3482,-8.33301 0.29883,-10.18945 1.17964,-3.38459 2.92948,-5.30064 4.82812,-5.35547 z m 34,0 c 0.27124,-0.008 0.5462,0.0225 0.82227,0.0918 2.66703,0.66939 4.16781,4.1233 3.45117,7.94336 -0.41643,2.21976 -3.22762,5.56359 -5.76758,6.85938 -2.00829,1.02455 -3.06819,1.215 -3.63281,0.65039 -0.57555,-0.57555 -0.3482,-8.33301 0.29883,-10.18945 1.17964,-3.38459 2.92948,-5.30064 4.82812,-5.35547 z m -136.35937,10.61914 c 0.4209,0.0333 0.87687,0.17183 1.375,0.41016 1.59293,0.76215 3.64474,4.78755 4.25586,8.34766 0.96444,5.61842 1.20831,6.83534 1.52539,7.62695 0.19303,0.48186 0.20951,1.43811 0.0371,2.125 -0.43414,1.72977 -1.3479,1.56504 -3.63477,-0.6543 -3.51182,-3.4081 -5.86894,-7.01611 -7.10547,-10.875 -0.58681,-1.83129 -0.54511,-2.25236 0.42969,-4.32617 0.8984,-1.91125 1.85449,-2.75406 3.11719,-2.6543 z m 33.14844,24.75782 c 0.4125,0 0.75,0.225 0.75,0.5 0,0.275 -0.3375,0.5 -0.75,0.5 -0.4125,0 -0.75,-0.225 -0.75,-0.5 0,-0.275 0.3375,-0.5 0.75,-0.5 z m 36,0 c 0.4125,0 0.75,0.225 0.75,0.5 0,0.275 -0.3375,0.5 -0.75,0.5 -0.4125,0 -0.75,-0.225 -0.75,-0.5 0,-0.275 0.3375,-0.5 0.75,-0.5 z"
     style="fill:#6711a5;fill-opacity:1;stroke:#6711a5;stroke-width:0.5;stroke-opacity:1" />
  <path
     id="path1693"
     d="m 546.7407,673.63247 c -1.12613,0.009 -2.38632,0.29 -2.79882,0.625 -2.04644,1.66198 -2.12247,2.51275 -1.79688,20.17774 0.65613,35.59878 1.74765,52.93898 3.46875,55.10937 0.95141,1.19977 2.8147,1.61427 4.82031,1.07422 2.31744,-0.62402 2.56507,-1.37407 2.16407,-6.57422 -0.7822,-10.14328 3.32748,-20.46046 12.58203,-31.58203 2.30272,-2.76728 3.06769,-3.3758 4.08398,-3.25 3.4097,0.42206 5.42356,10.38317 3.7207,18.4043 -0.32109,1.5125 -0.71271,3.48456 -0.86914,4.38086 -0.15643,0.8963 -0.4839,1.75312 -0.72851,1.9043 -0.24462,0.15118 -0.44531,0.78931 -0.44531,1.41796 0,0.62865 -0.4639,1.56273 -1.03125,2.07618 -0.9808,0.88761 -1.18171,0.89303 -4.09961,0.13281 -3.60762,-0.9399 -5.17001,-0.4963 -6.10547,1.72851 -0.60468,1.43811 -0.24502,3.678 1.11328,6.91993 0.62238,1.48547 2.77355,3.33248 4.33594,3.72461 1.58643,0.39817 4.30387,-0.96771 6.53711,-3.28516 2.21618,-2.29976 4.58239,-3.5 6.90039,-3.5 1.76828,0 4.22926,-0.72763 7.17187,-2.12109 2.22079,-1.05163 4.17774,-0.84578 4.17774,0.43945 0,0.8539 2.69235,4.92809 4.25,6.43164 1.72526,1.66534 4.37498,2.95283 6.75,3.2793 6.3512,0.87303 11.22897,-1.24743 17.75586,-7.7168 4.94347,-4.89992 5.93161,-6.16571 8.25781,-10.58789 1.62573,-3.09056 1.42536,-4.22461 -0.7461,-4.22461 -0.82463,0 -1.414,0.61086 -2.29492,2.375 -3.06572,6.13947 -8.63565,12.35386 -13.85937,15.46289 -1.90106,1.13146 -2.30488,1.20468 -3.62891,0.65625 -1.32768,-0.54994 -2.56413,-1.74072 -4.98437,-4.79883 -0.4125,-0.52121 -1.28085,-2.07102 -1.92969,-3.44531 -0.64885,-1.37429 -1.3801,-2.88967 -1.625,-3.36719 -0.24491,-0.47752 -0.44531,-1.3082 -0.44531,-1.8457 0,-0.5375 -0.225,-1.11715 -0.5,-1.28711 -0.275,-0.16996 -0.5,-1.17838 -0.5,-2.24219 0,-2.12533 1.09028,-3.32559 4.10546,-4.52148 4.5634,-1.80994 8.89454,-7.75345 8.89454,-12.20313 0,-7.2056 -8.96687,-11.73815 -15.07618,-7.62109 -2.19858,1.48162 -5.14019,5.4433 -5.94921,8.01172 -0.35964,1.14172 -0.80843,2.30117 -0.9961,2.57617 -1.13825,1.66792 -1.46228,10.42899 -0.5918,15.99805 0.61896,3.95988 0.29667,4.69089 -2.54687,5.75781 -0.87387,0.32788 -2.05871,0.81612 -2.63281,1.08594 -0.5741,0.26984 -1.6991,0.41551 -2.5,0.32421 -1.62622,-0.18543 -2.18432,-1.73695 -1.30078,-3.61523 1.70831,-3.63166 1.84489,-4.71959 1.84179,-14.6543 -0.002,-7.38562 -0.17035,-10.26997 -0.625,-10.72461 -0.34205,-0.34206 -0.62304,-1.01658 -0.62304,-1.5 0,-0.48342 -0.86446,-1.78881 -1.92188,-2.90039 -2.27798,-2.39465 -4.02945,-2.61517 -7.40039,-0.93164 -3.64153,1.81867 -11.17773,9.82487 -11.17773,11.875 0,0.2942 -0.16875,0.53897 -0.375,0.54297 -0.20625,0.004 -0.92879,1.13919 -1.60743,2.52149 -0.67863,1.38229 -1.64194,2.88269 -2.14062,3.33398 -2.02385,1.83156 -2.25587,0.46831 -2.83399,-16.6543 -0.29788,-8.82292 -0.54296,-19.493 -0.54296,-23.71093 0,-8.8777 -0.24505,-9.50923 -3.70118,-9.48243 z m 213.5586,30.58789 c -1.69978,0.0414 -3.40627,0.52933 -4.9336,1.5586 -2.19858,1.48162 -5.14019,5.4433 -5.94922,8.01172 -0.35963,1.14172 -0.80842,2.30117 -0.99609,2.57617 -1.46864,2.15206 -1.37656,16.58258 0.12109,19.00586 0.42343,0.6851 -0.54357,1.8373 -2.30468,2.74414 -2.33771,1.20375 -8.98332,0.94681 -11.90821,-0.46094 -3.36081,-1.61756 -3.88671,-2.95117 -3.88671,-9.85547 0,-5.93903 -0.85602,-12.55036 -1.7461,-13.47851 -1.88233,-1.96283 -5.1129,-2.24989 -6.54101,-0.58008 -1.97378,2.30784 -2.3426,3.52016 -2.3125,7.60547 0.0309,4.18101 0.16283,4.55546 3.92773,11.26953 1.40164,2.49961 2.34516,6.98461 1.98242,9.41797 -0.17066,1.14485 -0.44673,2.98422 -0.61328,4.08594 -0.16655,1.10173 -0.50405,2.12729 -0.75,2.27929 -0.24595,0.15201 -0.44726,0.81176 -0.44726,1.4668 0,0.65504 -0.225,1.33004 -0.5,1.5 -0.275,0.16996 -0.5,0.71198 -0.5,1.20312 0,1.15917 -1.65569,2.65007 -2.55274,2.29883 -0.87111,-0.34109 -2.94726,-3.48638 -2.94726,-4.46484 0,-0.40013 -0.19812,-0.85159 -0.44141,-1.00195 -0.2433,-0.15037 -0.57163,-0.89468 -0.72852,-1.6543 -0.1569,-0.75962 -0.52961,-2.50586 -0.82812,-3.88086 -0.29851,-1.375 -0.74027,-3.69337 -0.98242,-5.15234 -0.24215,-1.45897 -0.79637,-3.19778 -1.23243,-3.86329 -0.66957,-1.0219 -0.97045,-1.12935 -1.93164,-0.6914 -1.22687,0.559 -1.60837,1.3323 -3.30468,6.70703 -1.05773,3.35141 -1.67186,4.84183 -4.17578,10.125 -1.66665,3.51655 -3.85958,6.125 -5.14844,6.125 -0.42563,0 -1.32563,-0.59462 -2,-1.32227 l -1.22656,-1.32422 v -20.82617 c 0,-15.5321 -0.15215,-20.98027 -0.59961,-21.42773 -0.97659,-0.97658 -5.60544,-0.74754 -6.95313,0.34375 l -1.16601,0.94336 0.14843,14.4707 c 0.1358,13.36444 0.0741,14.59941 -0.78906,16.14453 -0.51408,0.9202 -1.5569,2.13852 -2.31836,2.70703 l -1.38476,1.03321 -0.86719,-1.15039 c -0.4775,-0.63302 -1.16396,-2.20625 -1.52344,-3.4961 -1.93625,-6.94749 -2.35464,-8.64624 -3.04883,-12.3457 -0.49685,-2.64808 -0.4499,-13.05195 0.0996,-21.98828 0.13761,-2.23782 0.0262,-2.54929 -1.09765,-3.07422 -1.6066,-0.75042 -4.13897,-0.34832 -5.43946,0.86328 -1.1461,1.06775 -3.10404,1.22908 -4.68164,0.38477 -1.39677,-0.74753 -6.07107,-0.67815 -8.05078,0.11914 -2.60146,1.0477 -4.81007,2.97391 -6.7793,5.91406 -2.06108,3.07729 -4.04882,7.12383 -4.04882,8.24609 0,0.39927 -0.19874,0.85078 -0.44336,1.00196 -1.54047,0.95206 -2.39621,17.7945 -1.06836,21.0332 1.50104,3.66111 2.19546,4.81257 3.42968,5.69141 4.31943,3.0757 8.5039,1.51987 12.04883,-4.47852 1.87309,-3.16944 4.377,-8.43581 4.97461,-10.46289 0.36483,-1.2375 0.86496,-2.76675 1.11133,-3.39844 0.24636,-0.63169 0.44727,-1.66493 0.44727,-2.29687 0,-1.41549 1.86089,-3.32122 2.19531,-2.24805 0.79018,2.53578 1.35224,5.3016 2.07226,10.19336 0.1619,1.1 0.47548,2.45 0.69532,3 0.21984,0.55 0.67004,1.9 1.00195,3 1.77025,5.86689 4.71563,9.75 7.39453,9.75 1.81212,0 5.36595,-2.06007 5.88477,-3.41211 0.27396,-0.71392 0.45357,-0.65619 1.27734,0.41602 0.52682,0.68571 0.96275,1.86892 0.96875,2.6289 0.006,0.75999 0.21017,1.77249 0.45508,2.25 0.2449,0.47752 0.93291,1.87969 1.52734,3.11719 1.83718,3.82472 2.32357,4.25532 4.75586,4.20312 2.82787,-0.0607 5.98625,-2.28198 9.92969,-6.98437 1.59955,-1.90739 3.30654,-3.53519 3.79297,-3.61719 0.85569,-0.14415 3.54883,3.19502 3.54883,4.40039 0,0.28813 1.00802,1.53145 2.23828,2.76172 2.85337,2.85337 5.04771,3.05074 7.88867,0.70899 2.05074,-1.6904 3.98418,-5.38535 4.56641,-8.72266 0.86348,-4.94954 1.22155,-6.2958 1.98242,-7.45703 0.89598,-1.36745 2.24956,-1.6354 3.87109,-0.76758 0.53953,0.28875 3.41002,0.53859 6.37891,0.55469 4.30169,0.0233 5.79684,-0.1616 7.36132,-0.91211 2.18284,-1.04716 3.7129,-0.98385 3.7129,0.1543 0,0.84322 2.67891,4.90558 4.23828,6.42773 2.40036,2.34307 5.12883,3.33767 9.20898,3.35547 3.39237,0.0148 4.35019,-0.19541 7.30469,-1.60547 3.968,-1.89375 11.45519,-8.92118 14.51758,-13.625 1.94436,-2.98654 2.86565,-3.48835 3.66797,-2 0.25943,0.48125 1.64135,2.45 3.07031,4.375 4.24709,5.72139 4.32234,6.61055 0.8789,10.27148 -4.33862,4.61265 -5.88671,7.31853 -5.88671,10.29297 0,3.59392 2.82495,6.56695 7,7.36719 2.46176,0.47185 8.63149,-0.22911 10.52539,-1.19531 1.03275,-0.52687 2.57613,-1.80281 3.42773,-2.83594 1.48347,-1.79976 1.54688,-2.07088 1.54688,-6.49023 0,-4.56609 -0.19914,-5.46728 -2.10547,-9.4668 -1.3918,-2.92003 -1.04527,-4.10216 1.85547,-6.30859 2.97339,-2.26172 4.43644,-2.30439 4.64648,-0.13477 0.18218,1.88194 1.44012,5.53809 2.75391,8 0.2935,0.55 0.83575,1.5974 1.20507,2.32812 0.96166,1.90273 4.22622,5.14069 6.15235,6.10157 0.96523,0.48153 2.86088,0.82031 4.58008,0.82031 5.35145,0 7.95556,-2.59482 11.54297,-11.5 1.22633,-3.04421 1.57374,-3.5 2.67382,-3.5 0.6248,0 1.27536,0.225 1.44532,0.5 0.42184,0.6826 3.41631,0.63119 4.99023,-0.0859 0.87513,-0.39874 1.45002,-0.42303 1.79687,-0.0762 0.28058,0.28058 0.6488,2.95891 0.81836,5.95312 0.16956,2.99421 0.55292,5.67483 0.85157,5.95704 0.93169,0.88042 3.27926,1.75195 4.7207,1.75195 2.78226,0 2.95211,-0.50077 3.2793,-9.75 0.16538,-4.675 0.50584,-9.9625 0.75781,-11.75 0.99383,-7.05038 1.18341,-8.03259 1.60156,-8.29102 0.23852,-0.14741 0.4336,-0.70664 0.4336,-1.24414 0,-0.5375 0.20236,-1.36819 0.44921,-1.8457 0.24684,-0.47752 1.39868,-2.82852 2.56055,-5.22266 1.16187,-2.39414 2.55803,-4.75421 3.10156,-5.24609 0.95709,-0.86616 1.0241,-0.84998 2.14258,0.55273 0.63518,0.7966 1.27427,2.03362 1.41992,2.74805 0.14566,0.71444 0.51727,2.31133 0.82422,3.54883 2.53828,10.23307 3.06334,15.64721 2.25782,23.25 -0.35797,3.37855 -0.32235,3.54771 1.00585,4.875 1.46655,1.46554 3.40113,1.78441 4.45118,0.73437 0.35206,-0.35206 0.7848,-1.75831 0.96289,-3.125 0.33963,-2.60642 1.0504,-6.85359 1.60937,-9.61523 0.18158,-0.89712 0.53014,-1.75393 0.77344,-1.9043 0.24329,-0.15036 0.44141,-0.67185 0.44141,-1.1582 0,-2.04334 6.34966,-15.81386 7.96679,-17.27734 2.01052,-1.81949 3.32498,0.36185 4.57813,7.5957 0.96276,5.55755 1.84032,10.16475 2.88086,15.125 1.59042,7.58151 3.29175,9.65104 10.22265,12.4375 3.62693,1.45815 8.31434,-0.2918 12.01563,-4.48828 l 2.38086,-2.69922 1.10156,1.4375 c 3.7826,4.92576 6.4844,6.39477 11.80078,6.41797 5.69756,0.0249 9.24348,-1.78128 15.3086,-7.79297 4.94346,-4.89992 5.93161,-6.16571 8.25781,-10.58789 1.62573,-3.09056 1.42536,-4.22461 -0.7461,-4.22461 -0.82463,0 -1.414,0.61086 -2.29492,2.375 -3.06572,6.13947 -8.63564,12.35386 -13.85937,15.46289 -1.90106,1.13146 -2.30488,1.20468 -3.62891,0.65625 -1.32768,-0.54994 -2.56413,-1.74072 -4.98437,-4.79883 -0.4125,-0.52121 -1.28085,-2.07102 -1.92969,-3.44531 -0.64885,-1.37428 -1.3801,-2.88967 -1.625,-3.36719 -0.24491,-0.47751 -0.44531,-1.3082 -0.44531,-1.8457 0,-0.5375 -0.225,-1.11715 -0.5,-1.28711 -0.275,-0.16996 -0.5,-1.17838 -0.5,-2.24219 0,-2.12532 1.09028,-3.32559 4.10546,-4.52148 4.5634,-1.80994 8.89454,-7.75345 8.89454,-12.20313 0,-7.2056 -8.96687,-11.73815 -15.07618,-7.62109 -2.19858,1.48162 -5.1402,5.4433 -5.94922,8.01172 -0.35963,1.14172 -0.80842,2.30117 -0.99609,2.57617 -1.42644,2.09024 -1.41113,16.57481 0.0195,18.5 0.71633,0.96394 1.0206,4.14035 0.52149,5.45312 -0.27718,0.72902 -1.55103,2.44314 -2.83008,3.81055 -1.9727,2.10897 -2.60491,2.48633 -4.16406,2.48633 -1.36949,0 -2.15487,-0.35051 -3.08399,-1.375 -2.08202,-2.2957 -4.15895,-7.26001 -4.65234,-11.125 -0.15797,-1.2375 -0.51024,-3.4875 -0.7832,-5 -0.27298,-1.5125 -0.72561,-4.1 -1.00586,-5.75 -1.85868,-10.9429 -2.53621,-13.253 -4.35157,-14.83594 -1.22212,-1.06567 -3.42187,-1.39586 -5.49218,-0.82422 -3.3186,0.91631 -5.95312,4.71372 -12.34961,17.79688 -0.77647,1.58817 -2.37311,1.24325 -2.94727,-0.63672 -0.25196,-0.825 -0.6496,-2.5125 -0.88477,-3.75 -1.27102,-6.68827 -1.48782,-7.50564 -2.64453,-10 -1.53882,-3.31835 -4.65611,-4.37006 -7.97851,-2.69141 -2.05717,1.03938 -3.85156,2.68329 -3.85156,3.5293 0,0.36456 -0.225,0.66211 -0.5,0.66211 -0.275,0 -0.5,0.31661 -0.5,0.70312 0,0.66294 -0.32772,1.41219 -2.9336,6.71875 -0.5867,1.19474 -1.0664,2.39346 -1.0664,2.66211 0,0.79435 -1.44991,2.00553 -1.9961,1.66797 -0.27711,-0.17126 -0.5039,-1.82268 -0.5039,-3.66992 0,-4.89688 -0.93783,-11.59212 -1.73633,-12.39062 -0.86451,-0.86446 -2.30516,-0.88644 -3.44531,-0.0527 -1.50633,1.10145 -1.89832,4.2325 -2.17383,17.35156 -0.30388,14.47015 -0.14426,13.96734 -4.44141,13.99414 -3.54102,0.0221 -4.06833,-0.70286 -4.35742,-5.98437 -0.12795,-2.3375 -0.49244,-5.375 -0.81055,-6.75 -0.31812,-1.375 -0.7094,-3.175 -0.86914,-4 -0.15974,-0.825 -0.45762,-1.725 -0.66015,-2 -0.20254,-0.275 -0.50635,-1.0814 -0.67579,-1.79297 -0.72988,-3.06504 -3.5797,-5.18211 -6.25781,-4.64648 -3.54057,0.70811 -6.08271,4.70588 -6.1289,9.63867 -0.0526,5.6154 2.04462,8.73414 9.55664,14.20508 3.01885,2.1986 3.11633,3.51612 0.61523,8.35742 -2.98226,5.77266 -3.16184,5.98828 -4.94727,5.98828 -1.1154,0 -2.0576,-0.46581 -3.15234,-1.56055 -1.95733,-1.95732 -5.51562,-7.15904 -5.51562,-8.0625 0,-0.37258 -0.18493,-0.89109 -0.41211,-1.15234 -0.38965,-0.44808 -0.77056,-1.66525 -2.04688,-6.5332 -0.29677,-1.13191 -0.54101,-4.64674 -0.54101,-7.8125 0,-6.14196 0.54976,-8.36258 2.50586,-10.13282 2.20999,-2.00002 2.51133,-4.74609 0.52148,-4.74609 -1.25769,0 -4.06941,1.23124 -5.32813,2.33203 -2.38843,2.08876 -4.2608,7.51369 -5.11132,14.80664 -0.33535,2.87544 -0.35467,2.90131 -4.08789,5.8711 -5.04748,4.01527 -6.11504,4.02782 -9.85547,0.11523 -3.70926,-3.87998 -5.72903,-7.02983 -5.17578,-8.06836 2.02642,-3.8046 3.3757,-12.97572 2.03125,-13.80664 -0.275,-0.16996 -0.5,-0.72844 -0.5,-1.24219 0,-0.51375 -0.83814,-1.62568 -1.86329,-2.4707 -3.59325,-2.96185 -7.96114,-1.42889 -11.01171,3.86523 -0.74401,1.2912 -0.83954,6.90605 -0.125,7.34766 0.275,0.16996 0.5,0.64514 0.5,1.05469 0,0.40956 0.45,1.67608 1,2.81445 0.55,1.13837 1,2.45341 1,2.92383 0,1.02733 -2.34207,5.57142 -4.45508,8.64258 -1.84192,2.67713 -7.48362,7.89775 -10.43164,9.65234 -1.90106,1.13146 -2.30488,1.20468 -3.62891,0.65625 -1.32768,-0.54994 -2.56413,-1.74072 -4.98437,-4.79883 -0.4125,-0.52121 -1.28085,-2.07102 -1.92969,-3.44531 -0.64885,-1.37428 -1.3801,-2.88967 -1.625,-3.36719 -0.24491,-0.47751 -0.44531,-1.3082 -0.44531,-1.8457 0,-0.5375 -0.225,-1.11715 -0.5,-1.28711 -0.275,-0.16996 -0.5,-1.17838 -0.5,-2.24219 0,-2.12532 1.09028,-3.32559 4.10546,-4.52148 4.5634,-1.80994 8.89454,-7.75345 8.89454,-12.20313 0,-5.4042 -5.04326,-9.30383 -10.14258,-9.17969 z m -159.39649,3.01954 c 0.27124,-0.008 0.5462,0.0225 0.82227,0.0918 2.66703,0.66938 4.16782,4.12329 3.45117,7.94336 -0.41643,2.21975 -3.22762,5.56359 -5.76758,6.85938 -2.00829,1.02455 -3.06819,1.215 -3.63281,0.65039 -0.57555,-0.57556 -0.3482,-8.33301 0.29883,-10.18946 1.17964,-3.38457 2.92949,-5.30063 4.82812,-5.35546 z m 161,0 c 0.27124,-0.008 0.5462,0.0225 0.82227,0.0918 2.66703,0.66938 4.16781,4.12329 3.45117,7.94336 -0.41643,2.21975 -3.22762,5.56359 -5.76758,6.85938 -2.00829,1.02455 -3.06819,1.215 -3.63281,0.65039 -0.57555,-0.57556 -0.3482,-8.33302 0.29883,-10.18946 1.17964,-3.38457 2.92948,-5.30063 4.82812,-5.35546 z m 175,0 c 0.27124,-0.008 0.5462,0.0225 0.82227,0.0918 2.66703,0.66938 4.16781,4.12329 3.45117,7.94336 -0.41643,2.21975 -3.22762,5.56359 -5.76758,6.85938 -2.00829,1.02455 -3.06819,1.215 -3.63281,0.65039 -0.57555,-0.57556 -0.3482,-8.33302 0.29883,-10.18946 1.17964,-3.38457 2.92948,-5.30063 4.82812,-5.35546 z m -274.0957,1.85351 c 1.32822,0.0355 2.61456,0.49168 3.65039,1.36328 1.54307,1.2984 1.58229,1.43011 1.30664,4.375 -0.70533,7.53524 -3.33861,17.83397 -5.95312,23.28516 -1.25271,2.61185 -3.81277,6.58432 -4.58594,7.11719 -0.94208,0.64929 -1.74134,0.41045 -2.48438,-0.74219 -2.59687,-4.02838 -4.72739,-14.98893 -3.74414,-19.26172 1.83192,-7.96071 4.22577,-12.49629 7.90625,-14.97656 1.20449,-0.81171 2.57608,-1.19567 3.9043,-1.16016 z m 127.92383,3.52344 c 1.88173,0 3.33557,3.11646 2.68164,5.75 -0.20486,0.825 -0.51221,2.11875 -0.68164,2.875 -0.48325,2.15698 -1.64562,1.62356 -3.02344,-1.38867 -1.98437,-4.33827 -1.57501,-7.23633 1.02344,-7.23633 z m 43.8125,5.24219 c 0.4209,0.0332 0.87687,0.17182 1.375,0.41015 1.59293,0.76215 3.64474,4.78755 4.25586,8.34766 0.96444,5.61842 1.20833,6.83534 1.52539,7.62695 0.19303,0.48186 0.20951,1.43811 0.0371,2.125 -0.43414,1.72977 -1.3479,1.56505 -3.63477,-0.65429 -3.51182,-3.4081 -5.86894,-7.01611 -7.10547,-10.875 -0.58681,-1.83129 -0.54511,-2.25238 0.42969,-4.32618 0.8984,-1.91125 1.85449,-2.75405 3.11719,-2.65429 z m -109.02539,0.41015 c 0.9364,-0.10161 1.42383,1.30547 1.42383,4.16016 0,2.82443 -0.11008,3.1875 -0.97071,3.1875 -2.33679,0 -3.47406,-4.98732 -1.53711,-6.74023 0.41002,-0.37107 0.77185,-0.57356 1.08399,-0.60743 z m 61.84765,12.97657 c 0.30773,-0.044 0.57618,0.13859 0.57618,0.58007 0,0.43542 -0.3556,0.79102 -0.79102,0.79102 -0.43542,0 -0.7026,-0.26719 -0.59375,-0.59375 0.15452,-0.46356 0.50087,-0.73338 0.80859,-0.77734 z m -223.43164,9.57617 c 0.26943,0.01 0.5712,0.13869 0.97461,0.39062 1.3238,0.82673 1.73501,2.09512 1.07617,3.32617 -0.95061,1.77623 -1.98525,1.6851 -2.79296,-0.24804 -0.92359,-2.21043 -0.92576,-2.40473 -0.0391,-3.14063 0.27447,-0.2278 0.51183,-0.33772 0.78125,-0.32812 z m 233.49414,10.29492 c 1.28794,0 2.41206,7.56327 1.4043,9.44727 -0.3524,0.65879 -1.10032,1.36652 -1.66406,1.57226 -1.39537,0.50923 -3.95402,-0.64066 -5.00977,-2.25195 -0.75573,-1.15338 -0.7768,-1.47076 -0.16406,-2.6211 0.83903,-1.57518 4.88005,-6.14648 5.43359,-6.14648 z"
     style="fill:#6711a5;fill-opacity:1;stroke:#6711a5;stroke-width:0.5;stroke-opacity:1" />
  <path
     id="path1699"
     d="m 651.10156,460.34382 c -2.17624,0.13339 -3.97492,1.8881 -4.82226,4.90234 -0.71047,2.52736 -1.32927,14.45765 -1.32227,25.5 0.005,7.43174 0.26707,11.47879 1.53516,23.68555 0.15342,1.47682 0.0572,3.16432 -0.21289,3.75 -3.89226,8.43977 -5.09612,10.31445 -6.62305,10.31445 -1.08904,0 -2.15044,-1.31881 -2.81836,-3.5 -1.36802,-4.46746 -2.35249,-8.49272 -3.125,-12.7793 -0.69265,-3.84327 -0.7294,-19.04887 -0.0469,-19.4707 0.8352,-0.51619 0.5962,-4.54695 -0.31446,-5.30273 -1.19709,-0.9935 -4.36974,-0.73933 -6.09375,0.48828 -1.67146,1.19019 -3.1358,1.3443 -4.7207,0.49609 -1.49181,-0.7984 -6.26493,-0.63665 -8.4707,0.28711 -1.72541,0.7226 -4.6463,3.2468 -6.41211,5.54102 -1.09325,1.42038 -3.98828,7.53872 -3.98828,8.42968 0,0.41359 -0.19874,0.87617 -0.44336,1.02735 -0.52859,0.32669 -0.95524,2.59839 -1.50782,8.0332 -0.56336,5.54086 -0.93093,6.29705 -3.75781,7.75 -2.30844,1.18649 -8.96046,0.92057 -11.9043,-0.47656 -3.36058,-1.59492 -3.88671,-2.92718 -3.88671,-9.83985 0,-5.93903 -0.85602,-12.55036 -1.7461,-13.47851 -1.88072,-1.96116 -5.08843,-2.2435 -6.60351,-0.58008 -1.90506,2.09158 -2.33276,3.51917 -2.28711,7.625 0.046,4.13958 0.1617,4.46772 3.96484,11.25 1.38249,2.46544 2.35359,7.00821 1.99024,9.30469 -0.16931,1.07004 -0.45212,2.90696 -0.62891,4.08203 -0.17679,1.17506 -0.51734,2.25688 -0.75586,2.40429 -0.23852,0.14741 -0.43359,0.80395 -0.43359,1.45899 0,0.65504 -0.225,1.33004 -0.5,1.5 -0.275,0.16996 -0.5,0.71197 -0.5,1.20312 0,1.15917 -1.65568,2.65007 -2.55274,2.29883 -0.8711,-0.34109 -2.94726,-3.48638 -2.94726,-4.46484 0,-0.40013 -0.19812,-0.85159 -0.44141,-1.00195 -0.24329,-0.15037 -0.57162,-0.89469 -0.72852,-1.6543 -0.15689,-0.75962 -0.52961,-2.50586 -0.82812,-3.88086 -0.29851,-1.375 -0.74028,-3.69337 -0.98242,-5.15234 -0.24215,-1.45897 -0.79636,-3.19777 -1.23242,-3.86329 -0.66958,-1.0219 -0.97046,-1.12935 -1.93165,-0.6914 -1.22686,0.559 -1.60838,1.3323 -3.30468,6.70703 -0.60755,1.925 -1.54095,4.45625 -2.07617,5.625 -2.24869,4.91037 -3.25927,6.91634 -3.83985,7.625 -0.33853,0.41321 -0.90103,1.12074 -1.25,1.57422 -1.19901,1.55809 -2.7623,1.60935 -4.1289,0.13476 l -1.25586,-1.35547 V 515.0235 c 0,-15.5321 -0.15215,-20.98027 -0.59961,-21.42773 -0.97659,-0.97658 -5.60545,-0.74754 -6.95313,0.34375 l -1.16601,0.94336 0.14843,14.62695 c 0.0818,8.04513 0.35597,15.17333 0.60938,15.83984 0.25341,0.66652 0.46094,2.19703 0.46094,3.4004 0,1.20337 0.225,2.32613 0.5,2.49609 0.275,0.16996 0.5,0.97461 0.5,1.78711 0,0.8125 0.2004,1.86818 0.44531,2.3457 0.2449,0.47752 0.93291,1.87969 1.52734,3.11719 1.31598,2.73964 2.04434,3.74005 3.02735,4.15234 3.01496,1.26454 9.03842,-2.7856 13.42578,-9.02734 0.62822,-0.89375 1.54824,-1.625 2.04297,-1.625 0.85952,0 3.53125,3.40638 3.53125,4.50195 0,0.28813 1.00801,1.53145 2.23828,2.76172 1.86395,1.86395 2.55214,2.23633 4.13476,2.23633 2.34698,0 5.23295,-2.20403 6.41797,-4.90234 1.47147,-3.35056 1.63817,-3.83158 1.94336,-5.59766 0.71652,-4.14632 0.88827,-4.83419 1.5957,-6.4043 0.92852,-2.0608 1.8227,-2.42275 4.02344,-1.62695 2.57435,0.93089 11.46987,0.82497 13.75586,-0.16406 2.42091,-1.04741 2.89063,-1.01386 2.89063,0.20312 0,0.55373 0.2071,1.39748 0.45898,1.875 0.25189,0.47752 0.81809,1.69996 1.25977,2.7168 2.07399,4.77472 7.82988,5.78461 11.47851,2.01367 1.95792,-2.02356 2.80409,-3.40403 5.58399,-9.11328 2.67698,-5.49786 2.81799,-5.90783 3.55664,-10.34375 0.30824,-1.85114 2.01196,-3.74096 2.34375,-2.59961 0.7794,2.68118 1.30923,4.9735 1.54687,6.69336 0.53921,3.90244 0.84456,5.5123 1.23633,6.5 0.21815,0.55 0.66809,1.9 1,3 1.78156,5.90435 4.71315,9.75 7.43164,9.75 2.66803,0 4.56886,-1.45189 7.16211,-5.46875 2.57316,-3.98573 2.69842,-3.96724 3.15234,0.46875 0.78322,7.654 1.55101,9 5.13477,9 1.90713,0 2.29266,-0.19698 3.18359,-1.625 1.05155,-1.68546 1.04906,-2.04085 -0.0566,-7.375 -0.31353,-1.5125 -0.67691,-5.90697 -0.80664,-9.76563 -0.21681,-6.44853 -0.15783,-7.08598 0.72266,-7.88281 0.91191,-0.82527 1.02193,-0.81482 2.30859,0.19727 0.74338,0.58474 2.72803,3.11958 4.41016,5.63281 1.68214,2.51322 3.20107,4.68086 3.375,4.81836 0.17393,0.1375 0.84701,1.0375 1.49609,2 1.88771,2.79923 6.08481,6.64814 8.70117,7.97851 1.84893,0.94015 3.19827,1.22852 5.75391,1.22852 2.9437,0 3.61406,-0.19136 5.68359,-1.61523 1.2907,-0.88802 3.39213,-2.90368 4.66992,-4.47852 1.27781,-1.57484 2.50555,-2.93182 2.72657,-3.01562 0.22102,-0.0838 1.14351,0.92869 2.05078,2.25 3.54088,5.15674 6.39828,6.78515 11.91211,6.78515 5.39374,0 9.0662,-1.80035 14.83398,-7.27344 3.98805,-3.78429 8.18946,-9.08655 8.18946,-10.33203 0,-0.29009 0.18064,-0.52734 0.40039,-0.52734 0.57338,0 1.72211,-3.39653 1.35156,-3.99609 -0.77714,-1.25743 -4.25195,-0.0764 -4.25195,1.44531 0,0.64641 -1.65722,3.62456 -3.54688,6.37109 -1.86408,2.70934 -8.13206,8.35729 -10.79687,9.72852 -2.08558,1.07317 -2.10303,1.07312 -3.75,0.11133 -1.92007,-1.12128 -4.8704,-4.84898 -6.42969,-8.12696 -0.59716,-1.25536 -1.28635,-2.67287 -1.53125,-3.15039 -0.24491,-0.47752 -0.44531,-1.3082 -0.44531,-1.8457 0,-0.5375 -0.225,-1.11715 -0.5,-1.28711 -0.275,-0.16996 -0.5,-1.17838 -0.5,-2.24219 0,-2.12532 1.09028,-3.32559 4.10546,-4.52148 6.24876,-2.4784 10.60396,-10.90599 8.16407,-15.79688 -2.31277,-4.63605 -8.01645,-6.85301 -12.65235,-4.91601 -3.05887,1.27808 -6.15544,4.84507 -7.57617,8.72656 -0.3523,0.9625 -0.82537,2.2 -1.05078,2.75 -1.52236,3.7146 -1.46101,17.59127 0.082,18.54492 1.52244,0.94092 -1.57464,6.89718 -5.13086,9.86719 -4.74112,3.95959 -9.12401,3.68068 -13.67383,-0.86914 -2.51121,-2.51121 -12.12783,-16.67668 -12.27929,-18.08789 -0.0563,-0.52468 -0.0766,-1.22351 -0.0449,-1.55274 0.0317,-0.32923 3.54414,-4.10737 7.80664,-8.39453 4.2625,-4.28716 7.75,-8.07842 7.75,-8.42578 0,-0.80888 -1.01751,-1.83203 -1.82227,-1.83203 -0.34222,0 -3.16444,2.62548 -6.27344,5.83398 -11.1796,11.53727 -12.43309,12.52371 -14.35547,11.3086 -0.91561,-0.57875 -0.94561,-3.38803 -0.29492,-27.98047 l 0.38672,-14.58984 -1.92383,-0.80469 c -0.78805,-0.32927 -1.55583,-0.46439 -2.28125,-0.41992 z m 171.12696,25.65234 c -1.85915,0 -5.56434,1.56847 -7.88672,3.33984 -1.72962,1.31924 -6.67578,8.09067 -6.67578,9.13867 0,0.28743 -0.225,0.52149 -0.5,0.52149 -0.275,0 -0.5,0.34158 -0.5,0.75781 0,0.41624 -0.20646,1.14749 -0.45899,1.625 -0.93123,1.76091 -2.54101,5.62076 -2.54101,6.09375 0,0.26832 -0.45178,0.73082 -1.00586,1.02735 -1.55066,0.82989 -1.67998,-0.16337 -1.33008,-10.21875 0.36603,-10.51883 0.15382,-11.29724 -3.06641,-11.26954 -2.08468,0.018 -3.0337,0.62558 -4.04883,2.59375 -0.71167,1.37981 -0.64283,7.58396 0.27344,24.78711 0.31693,5.95029 -0.16369,10.43423 -1.36523,12.72266 -0.25072,0.47751 -0.46175,1.15251 -0.46875,1.5 -0.007,0.34748 -0.7975,1.69961 -1.75586,3.00586 -2.87117,3.91345 -4.73063,3.13259 -6.25391,-2.625 -0.57516,-2.17377 -0.70443,-5.98963 -0.61523,-18.21289 0.0777,-10.6507 -0.0574,-15.66936 -0.43555,-16.125 -1.14055,-1.37428 -5.40179,-0.13341 -6.22461,1.8125 -0.55177,1.30489 -1.22941,4.59681 -1.70312,8.27539 -0.55483,4.30844 -1.23175,7.87048 -1.99805,10.5 -0.32056,1.1 -0.70304,2.62124 -0.84961,3.38086 -0.14657,0.75962 -0.46569,1.50393 -0.70898,1.6543 -0.2433,0.15036 -0.44336,0.71445 -0.44336,1.25195 0,0.5375 -0.19849,1.36819 -0.44141,1.8457 -0.24291,0.47752 -0.70721,1.44148 -1.03125,2.14258 -0.909,1.96673 -5.4332,7.83263 -6.29688,8.16406 -1.30214,0.49968 -2.52107,-0.70827 -3.16015,-3.1289 -0.33559,-1.27112 -0.85942,-3.09648 -1.16602,-4.0586 -0.37179,-1.16734 -0.49941,-6.15772 -0.38086,-15 0.24317,-18.13785 0.24796,-17.64521 -0.14257,-18.62695 -0.26673,-0.67053 -0.93454,-0.875 -2.85352,-0.875 -4.36057,0 -4.76853,1.62276 -5.33984,21.25 -0.31678,10.88289 0.14837,15.41716 1.96093,19.16016 1.15976,2.39493 2.66295,3.64726 5.47852,4.56054 3.41985,1.10929 7.86936,-1.1281 10.87891,-5.4707 0.66703,-0.9625 1.47882,-2.02487 1.80468,-2.36133 0.32587,-0.33645 1.06789,-1.38366 1.65039,-2.32617 1.14441,-1.85169 2.4803,-2.66898 2.73828,-1.67773 0.19563,0.75168 0.93973,3.34672 1.82618,6.36523 1.581,5.3836 5.07417,7.35625 10.94726,6.18164 0.96389,-0.19278 2.47159,-1.22022 3.80469,-2.5918 1.21447,-1.24951 2.29578,-2.17356 2.4043,-2.05468 0.10853,0.11889 0.48179,6.62734 0.82812,14.46484 0.50159,11.35134 0.78266,14.42798 1.38672,15.125 0.95816,1.10561 3.73352,1.14135 5.37109,0.0684 l 1.23243,-0.80859 -0.002,-17.81641 c -0.003,-16.58317 0.26707,-21.52584 1.56836,-28.56836 1.00503,-5.43922 2.97996,-11.6785 4.58594,-14.49023 0.5525,-0.96732 1.25013,-2.21107 1.55078,-2.76368 1.89872,-3.49003 5.94085,-7.67634 7.54688,-7.8164 3.21874,-0.2807 4.83534,0.57052 6.22851,3.27929 0.9899,1.92468 1.05887,2.66471 0.86133,9.31641 -0.19909,6.70412 -0.47964,8.95679 -1.76563,14.22461 -1.84366,7.55221 -2.06196,7.75 -8.59961,7.75 -4.60884,0 -5.2826,0.11669 -6.3164,1.08789 -0.94638,0.88907 -1.15558,1.5951 -1.14258,3.875 0.009,1.53331 0.29,3.13404 0.625,3.55664 1.24671,1.57269 3.84171,2.99794 5.99414,3.29297 3.00644,0.41207 5.25922,-0.72604 8.21875,-4.1543 2.71001,-3.13922 4.73608,-4.1582 8.27539,-4.1582 4.11782,0 8.61934,-1.50957 11.35156,-3.80859 3.09196,-2.60171 6.17346,-9.38172 5.0625,-11.13868 -0.73256,-1.15851 -1.92828,-0.24684 -3.33984,2.54883 -2.52857,5.00799 -7.80827,8.86703 -12.40234,9.0625 l -2.05078,0.0859 0.0742,-2.5 c 0.0407,-1.375 0.30322,-3.5125 0.58204,-4.75 0.27883,-1.2375 0.78074,-3.4875 1.11718,-5 0.89026,-4.00224 1.17122,-14.33007 0.45508,-16.75 -1.94416,-6.5696 -5.32478,-10.25 -9.41601,-10.25 z m -115.60157,2.62305 c 0.27124,-0.008 0.5462,0.0225 0.82227,0.0918 4.12312,1.03484 4.88438,7.65817 1.35351,11.78321 -0.95856,1.11986 -2.61042,2.47901 -3.66992,3.01953 -2.00829,1.02455 -3.06819,1.215 -3.63281,0.65039 -0.57555,-0.57556 -0.3482,-8.333 0.29883,-10.18946 1.17964,-3.38456 2.92948,-5.30063 4.82812,-5.35546 z m -87.0957,1.85351 c 1.32822,0.0355 2.61456,0.49168 3.65039,1.36328 1.54307,1.2984 1.58229,1.43011 1.30664,4.375 -0.70533,7.53524 -3.33861,17.83397 -5.95312,23.28516 -1.25271,2.61185 -3.81277,6.58432 -4.58594,7.11719 -1.44082,0.99301 -2.57564,-0.12285 -3.93555,-3.86719 -1.92615,-5.30342 -3.15771,-13.3663 -2.36133,-15.46094 0.28317,-0.74479 0.51368,-1.9048 0.51368,-2.57812 0,-0.67333 0.20297,-1.61429 0.45117,-2.0918 0.24819,-0.47752 0.72755,-1.80359 1.06445,-2.94531 0.75318,-2.55246 3.68171,-6.51168 5.94531,-8.03711 1.20449,-0.81171 2.57608,-1.19567 3.9043,-1.16016 z m -42.28906,9.17578 c 0.9364,-0.10161 1.42383,1.30547 1.42383,4.16016 0,2.82443 -0.11008,3.1875 -0.97071,3.1875 -2.33679,0 -3.47406,-4.98731 -1.53711,-6.74023 0.41002,-0.37107 0.77185,-0.57356 1.08399,-0.60743 z m 237.01172,28.84766 c 1.53726,0 3.05394,1.54973 2.62109,2.67773 -0.23885,0.62242 -0.97068,0.82227 -3.01172,0.82227 -2.28766,0 -2.69726,-0.13924 -2.69726,-0.92188 0,-1.26755 1.56984,-2.57812 3.08789,-2.57812 z"
     style="fill:#6711a5;fill-opacity:1;stroke:#6711a5;stroke-width:0.5;stroke-opacity:1" />
  <path
     id="path1705"
     d="m 679.56881,250.50411 c -4.0864,-0.0799 -7.9919,1.12628 -10.5742,3.875 -8.9902,9.56962 -7.9892,24.36294 2.0742,30.66407 14.7929,9.26246 32.1472,-7.70662 25.1524,-24.59375 -2.5285,-6.10434 -9.8416,-9.81215 -16.6524,-9.94532 z m 691.05669,4.07813 c -5.1048,-0.0654 -9.116,0.55493 -14.7988,1.98242 -10.5677,2.65452 -11.2738,3.15113 -12.918,9.07031 -4.7242,17.00786 1.1378,121.73735 7.2266,129.10547 2.2743,2.7522 5.3657,2.70095 26.2011,-0.43945 21.4061,-3.2264 33.0162,-8.48687 44.8516,-20.32227 17.2806,-17.28055 24.9375,-40.24531 21.7774,-65.32031 -2.2824,-18.11123 -9.2338,-29.7404 -24.9493,-41.73633 -9.2315,-7.04656 -16.0172,-9.19123 -36.4218,-11.50976 -4.4487,-0.50549 -7.9059,-0.79084 -10.9688,-0.83008 z m -823.69729,1.83203 c -2.2125,0.0773 -3.1675,0.89801 -4.7969,2.52734 -3.2923,3.29234 -3.3209,4.68482 -1.3008,61.60938 2.1123,59.51885 3.6852,75.77047 7.5899,78.45312 2.7154,1.86561 25.1433,0.64967 27.2715,-1.47851 0.8457,-0.8457 2.3669,-8.89865 3.3808,-17.89453 2.8757,-25.51462 9.8642,-54.7793 16.0196,-67.0918 3.0471,-6.09519 6.4188,-11.36684 7.4941,-11.71484 3.5843,-1.16001 7.262,4.59002 9.3418,14.60742 2.0124,9.6927 1.2974,55.09688 -1.1406,72.38867 -0.9235,6.55 -0.6126,7.45755 3.0273,8.81055 6.3528,2.36143 24.5024,3.86109 27.0313,2.23437 3.9421,-2.53577 5.6427,-15.5223 5.666,-43.25195 0.04,-47.20369 -7.3051,-70.62382 -23.8613,-76.08789 -4.8188,-1.59031 -7.3321,-1.4163 -13.4903,0.93554 -12.4652,4.7605 -22.2415,19.4898 -27.664,41.67774 -5.2967,21.67274 -6.3669,17.35317 -5.2383,-21.16406 0.8205,-28.00327 0.5725,-36.83634 -1.0723,-38.15235 -1.1772,-0.94184 -8.3371,-2.95738 -15.9121,-4.48047 -6.6617,-1.33947 -10.1332,-2.00508 -12.3457,-1.92773 z m -66.7188,1.05078 c -30.1213,0.0741 -54.5781,4.66275 -54.5781,10.83399 0,4.89239 5.6963,6.15231 16.4844,3.64453 5.5826,-1.29771 10.7522,-1.98814 11.4883,-1.53321 0.7361,0.45494 1.3773,16.49401 1.4238,35.64063 0.1194,49.10347 2.2651,81.15378 5.7949,86.54101 2.2728,3.46869 4.2335,4.30293 10.1075,4.29493 10.2596,-0.0135 19.8728,-3.01704 21.9238,-6.84961 1.0046,-1.87707 1.7441,-17.44986 1.7441,-36.71875 0,-18.40295 0.5125,-45.29611 1.1387,-59.76368 l 1.1387,-26.30468 14.7636,0.59765 c 12.9573,0.52609 14.8399,0.23127 15.3672,-2.41211 0.9605,-4.81444 -6.9598,-6.63305 -33.5957,-7.71679 -4.4795,-0.18226 -8.8981,-0.26449 -13.2012,-0.25391 z m 431.2969,0.0137 c -2.4612,-0.0144 -5.0941,0.23282 -7.8222,0.75977 l -8.2247,1.58984 -0.5214,9.05078 c -0.2867,4.97844 -1.0955,9.05274 -1.7989,9.05274 -0.7033,0 -4.2451,-3.13059 -7.8711,-6.95703 -9.1319,-9.63696 -15.436,-12.58208 -24.707,-11.53711 -18.265,2.05874 -31.4948,29.5448 -31.4707,65.38476 0.015,22.9983 5.3797,35.5796 17.7598,41.64844 14.0379,6.88152 27.2191,-2.63662 40.0761,-28.9375 8.85,-18.10389 10.4699,-17.05325 8.6426,5.59766 -2.6666,33.05482 -9.3662,48.59375 -20.9511,48.59375 -1.6305,0 -6.0539,-3.29796 -9.8321,-7.32813 l -6.8691,-7.32812 1.0254,6.67968 c 1.1841,7.70913 5.0411,12.66253 12.3808,15.90235 10.9575,4.83675 31.2065,0.97542 39.0957,-7.45508 12.9627,-13.85194 16.9915,-32.44649 18.0293,-83.23047 0.6478,-31.69555 0.3268,-41.45431 -1.4687,-44.82617 -2.2486,-4.22279 -8.089,-6.6171 -15.4727,-6.66016 z m 225.12699,0.043 c -35.1085,0.29781 -58.166,6.85711 -48.4297,14.9375 1.5928,1.32187 5.3926,1.1826 13.3614,-0.48828 6.1249,-1.28425 11.6408,-1.82652 12.2578,-1.20508 0.6169,0.62144 1.5038,25.57072 1.9707,55.44141 0.8318,53.21583 2.1477,66.22961 7.0136,69.36914 4.9092,3.16721 27.1445,0.0397 29.7559,-4.18555 0.656,-1.06156 1.4531,-26.05383 1.7715,-55.53906 0.3185,-29.48523 1.033,-56.98744 1.5879,-61.11523 l 1.0097,-7.50586 14.9532,0.60937 c 13.8289,0.56273 14.9531,0.35734 14.9531,-2.7168 0,-4.77554 -6.5582,-6.16877 -34.4824,-7.33203 -5.4469,-0.2269 -10.7072,-0.31207 -15.7227,-0.26953 z m -411.38869,1.63477 c -3.5519,0.0599 -5.0857,0.68057 -6.2051,2.02929 -3.5947,4.33133 -5.7104,32.53007 -5.1445,68.58008 l 0.5312,33.73242 -4.7675,7.2168 c -6.1653,9.33581 -10.9939,9.68015 -12.6407,0.90234 -0.6514,-3.47253 -0.7797,-21.22799 -0.2851,-39.45703 0.4946,-18.22904 0.3267,-34.07084 -0.3731,-35.20312 -1.0412,-1.68484 -18.2351,-4.94755 -27.2714,-5.17578 -1.2285,-0.031 -4.1373,1.84626 -6.4649,4.17382 -4.2014,4.2014 -4.2324,4.47453 -4.2324,37.57032 0,45.46755 3.3911,58.28349 17.3633,65.60937 11.9536,6.26754 27.1987,-0.88446 36.3125,-17.0332 2.9719,-5.26598 5.9453,-8.9406 6.6074,-8.16602 0.6621,0.77458 2.0979,4.51159 3.1914,8.30469 1.0935,3.79311 3.5991,9.51379 5.5664,12.71094 3.421,5.55949 3.9447,5.7778 11.9981,5.0039 4.6313,-0.44499 10.275,-2.0257 12.5429,-3.51171 3.9153,-2.5654 4.1376,-3.68763 4.4082,-22.24414 0.4884,-33.48297 5.398,-58.72874 14.5039,-74.58204 5.1811,-9.02018 7.4338,-9.36021 10.0801,-1.51757 2.6072,7.7267 3.1266,47.65897 0.9746,74.97265 l -1.4512,18.41602 11.504,3.55273 c 14.4649,4.46777 17.161,3.27697 19.7324,-8.71289 3.7062,-17.28164 5.6941,-44.01136 4.8554,-65.29297 -1.2828,-32.5518 -7.4463,-45.63376 -23.0976,-49.02148 -16.4565,-3.56202 -33.7577,17.86212 -39.7188,49.18555 -1.5167,7.96969 -3.2293,15.65375 -3.8066,17.07617 -1.8979,4.67639 -2.1152,-45.3804 -0.2578,-59.41016 1.4319,-10.81579 1.348,-14.18906 -0.4004,-15.9375 -1.2199,-1.21988 -8.0304,-2.71 -15.1348,-3.31055 -3.9305,-0.33225 -6.7888,-0.4969 -8.9199,-0.46093 z m 501.24029,0.45117 c -5.4199,-0.059 -7.6504,0.78764 -11.4453,3.33008 -16.6243,11.13766 -27.1231,43.27556 -24.8965,76.20117 1.99,29.42633 10.983,47.78814 27.7305,56.61719 11.9923,6.32217 26.4695,1.64778 39.3828,-12.71485 12.3382,-13.72305 18.8906,-28.68965 21.0976,-48.19726 1.2184,-10.76898 1.1545,-10.70177 12.2461,-12.92969 3.0164,-0.60589 6.3792,-2.18203 7.4746,-3.50195 3.442,-4.14729 0.091,-6.24006 -9.082,-5.67383 l -8.7168,0.53711 -2.2852,-9.92774 c -3.9834,-17.30463 -10.7114,-27.63586 -23.8242,-36.58593 -7.3582,-5.02226 -10.6159,-6.07997 -21.0234,-6.82227 -2.6919,-0.19199 -4.8516,-0.31235 -6.6582,-0.33203 z m 264.6426,0.41601 c -8.4591,-0.0544 -9.3861,0.73534 -15.3536,6.5625 -16.7661,16.37167 -24.5769,52.16445 -19.0312,87.20704 3.065,19.36716 12.9816,35.04264 26.6484,42.125 21.2151,10.99395 51.1174,-15.28657 57.877,-50.86719 4.263,-22.43908 3.6358,-21.24077 11.8359,-22.64063 5.4266,-0.9264 8.4213,-0.5836 11.0586,1.26368 1.9891,1.39319 5.056,2.5332 6.8145,2.5332 4.5612,0 13.2754,-9.32285 13.2754,-14.20117 0,-5.55011 -8.858,-13.81641 -14.8047,-13.81641 -4.639,0 -10.9386,5.87835 -11.0196,10.2832 -0.047,2.57758 -5.5349,5.66602 -10.0722,5.66602 -2.6389,0 -3.6039,-1.58564 -4.4668,-7.33984 -1.5783,-10.52448 -8.8176,-25.21975 -16.2031,-32.89258 -9.721,-10.09906 -17.7879,-13.53576 -32.4356,-13.81836 -1.5525,-0.03 -2.9146,-0.0567 -4.123,-0.0645 z m -808.96489,0.69532 c 1.0592,-0.0296 2.2018,0.27614 3.3828,1.01562 3.6778,2.30282 4.8866,10.31906 2.0683,13.71485 -2.6016,3.13484 -3.4241,3.10727 -8.248,-0.27149 -6.2127,-4.35156 -2.9232,-14.29919 2.7969,-14.45898 z m 291.91794,0.18164 c -6.77732,0.11171 -13.60538,2.00919 -18.67969,6.0957 -13.99284,11.2689 -19.22215,29.82179 -12.61523,44.75781 4.47117,10.10782 8.47479,14.56159 19.38476,21.5625 4.55901,2.92551 8.28911,5.81929 8.28711,6.43164 -0.002,0.61236 -3.55691,3.35867 -7.89844,6.10157 -9.88135,6.24286 -16.39268,15.9087 -17.5332,26.02734 -0.73677,6.53661 -0.11485,8.9073 3.83398,14.60547 5.91598,8.53676 10.68422,11.68865 19.20313,12.69141 13.20668,1.55454 26.42655,-0.13289 34.76953,-4.43555 27.5329,-14.19899 30.4587,-64.72016 4.7618,-82.23438 -3.8289,-2.60965 -14.95877,-8.83669 -24.7325,-13.83593 -24.11157,-12.33303 -28.02579,-18.7453 -15.16602,-24.84766 6.74948,-3.20284 15.92279,-1.92347 22.64453,3.1582 4.46854,3.3782 9.42965,3.36583 9.42965,-0.0234 0,-9.97597 -12.7509,-16.26795 -25.68941,-16.05468 z m 391.20705,6.45703 v 46.95508 c 0,26.97551 0.8236,51.68651 1.9356,58.07226 1.5872,9.11446 1.5089,11.38593 -0.4317,12.61524 -2.9299,1.85594 -6.2212,1.97253 -7.2422,0.25781 -2.1914,-3.68033 -4.7765,-53.74071 -4.2949,-83.18945 l 0.5508,-33.6211 4.7402,-0.54492 z m -629.05669,0.16992 c 2.5534,0.34986 2.8607,5.35696 1.3789,16.52539 -2.9679,22.36983 -2.276,56.09954 1.6094,78.40039 1.9037,10.92666 3.9541,21.14762 4.5547,22.71289 0.7098,1.84971 -0.1266,3.49746 -2.3867,4.70703 -4.093,2.19048 -4.1896,2.05986 -7.6953,-10.21875 -4.9525,-17.34571 -6.4945,-33.0431 -6.3399,-64.51172 0.1714,-34.87184 1.2318,-43.73859 5.5606,-46.46874 1.3675,-0.86251 2.4672,-1.26311 3.3183,-1.14649 z m 645.15439,0.0586 c 5.1336,0 17.3044,7.98538 20.9336,13.73438 5.3384,8.45662 9.5195,22.86976 9.5195,32.81445 0,21.54095 -10.1309,48.18544 -22.6094,59.45899 -3.6902,3.33389 -7.4,6.06054 -8.2441,6.06054 -3.0786,0 -3.6289,-6.1127 -3.6289,-40.38867 0,-42.83465 1.6222,-71.67969 4.0293,-71.67969 z m -904.57819,0.20313 c 0.5591,-0.0263 1.2319,0.0396 2.0527,0.13477 l 4.5313,0.52343 -0.6133,57.75977 c -0.3372,31.76724 -0.9646,58.33957 -1.3945,59.05078 -1.0129,1.67561 -2.5971,1.6002 -5.543,-0.26563 -4.7397,-3.00201 -6.259,-67.05766 -2.5312,-106.72461 0.802,-8.53419 1.0754,-10.36437 3.498,-10.47851 z m 660.47269,0.0176 c 0.5427,-0.021 1.1848,0.03 1.9531,0.11914 4.0586,0.47101 4.4823,1.20069 4.2891,7.41797 -0.1179,3.79311 -0.3867,29.92415 -0.5957,58.06836 -0.3227,43.4568 -0.766,51.32069 -2.9434,52.15625 -3.4219,1.3131 -3.621,1.27746 -4.955,-0.88086 -4.0117,-6.49115 -5.0253,-85.68404 -1.4063,-109.86524 0.8211,-5.48673 1.3066,-6.92451 3.6582,-7.01562 z m -223.18949,0.0195 c 2.3747,0.0247 2.7647,2.11308 3.7051,13.02734 0.6377,7.40155 0.3162,23.9307 -0.7149,36.73242 -2.1654,26.88765 -2.8632,31.74776 -6.4863,45.25782 -2.9831,11.12342 -6.6724,13.62786 -5.082,3.44922 2.3161,-14.82317 4.8432,-60.94846 4.3125,-78.72266 -0.5505,-18.43711 -0.44,-19.14098 3.1191,-19.64844 0.4277,-0.061 0.8073,-0.0992 1.1465,-0.0957 z m -354.7559,1.77148 c 1.0258,-0.0178 1.9773,0.25415 2.4825,0.77735 0.8082,0.83712 1.6985,28.28322 1.9785,60.99218 0.4557,53.22895 0.2216,59.52582 -2.2305,59.99805 -1.5068,0.29018 -3.3734,-0.86818 -4.1465,-2.57422 -0.7731,-1.70603 -1.7165,-28.89712 -2.0976,-60.42383 -0.6308,-52.18773 -0.4374,-57.41893 2.166,-58.41796 0.5898,-0.22632 1.2322,-0.3409 1.8476,-0.35157 z m 302.7715,3.16016 c 3.8306,0 3.8134,-0.21095 0.5899,7.50391 -1.4249,3.41017 -4.2549,14.02359 -6.291,23.58593 -3.2966,15.48167 -3.4734,18.66855 -1.6114,29.08789 1.1501,6.43556 3.2058,13.85008 4.5684,16.47657 1.3626,2.62648 2.4766,4.98314 2.4766,5.23828 0,0.25514 -1.6357,0.89271 -3.6368,1.41601 -7.6467,1.99966 -15.3035,-11.63702 -15.3125,-27.27343 0,-3.79311 1.1736,-13.63117 2.6133,-21.86133 3.9347,-22.49335 9.6094,-34.17383 16.6035,-34.17383 z m 628.33599,0.92969 c 1.1116,0.10873 0.1355,3.64077 -2.6914,11.85742 -3.5391,10.28669 -8.6699,42.60342 -8.6699,54.60547 0,13.06809 5.1293,30.56389 11.3496,38.71289 4.731,6.19796 5.2864,7.68355 2.8633,7.66015 -5.2681,-0.0509 -14.1577,-7.02258 -18.5821,-14.57226 -12.8676,-21.95694 -6.102,-78.24425 11.4239,-95.03516 2.2207,-2.12755 3.6397,-3.29375 4.3066,-3.22851 z m -265.1308,0.0527 c 1.2899,0.10628 1.3762,2.20734 -0.4649,5.76758 -4.7536,9.19248 -9.5586,38.6226 -9.5586,58.54297 0,21.05474 3.3446,33.67018 11.4942,43.35547 4.1524,4.9349 4.1837,5.14453 0.7871,5.14453 -4.834,0 -15.1215,-9.36277 -19.711,-17.93945 -3.3714,-6.30059 -3.7773,-9.65511 -3.7773,-31.19727 0,-20.60325 0.5803,-25.87044 3.9629,-35.96484 4.1209,-12.29768 7.2537,-18.2717 12.9844,-24.75782 1.6837,-1.90567 3.0835,-2.84162 4.0097,-2.94531 0.096,-0.0108 0.1875,-0.0129 0.2735,-0.006 z m 284.746,1.12695 c 6.395,-0.35463 21.6736,22.69911 22.8418,34.96094 0.4417,4.63695 -0.043,5.21181 -4.6796,5.56055 -7.3876,0.55561 -20.0295,-4.18507 -24.5704,-9.21484 -2.7543,-3.05082 -3.8789,-6.44582 -3.8789,-11.70508 0,-7.30388 5.3564,-18.07127 9.6973,-19.49414 0.187,-0.0613 0.3837,-0.096 0.5898,-0.10743 z m -265.5761,0.0723 c 3.4395,-0.14985 10.9449,6.63195 15.8027,14.48047 4.1677,6.7336 8.9782,22.47146 7.5664,24.75586 -3.5566,5.75471 -28.8539,-3.30351 -31.9472,-11.43945 -3.7035,-9.74089 0.6401,-24.87059 7.9453,-27.67383 0.1911,-0.0734 0.4035,-0.11306 0.6328,-0.12305 z m -365.29689,6.79102 c 0.1015,0.008 0.2027,0.0296 0.3027,0.0625 1.1988,0.39431 3.9132,3.75913 6.0312,7.47851 5.8499,10.27273 4.9265,17.9897 -4.4082,36.82617 -8.1663,16.47897 -11.0784,19.76397 -13.0234,14.69532 -4.4579,-11.61709 4.7035,-59.57521 11.0977,-59.0625 z m -88.8438,1.37304 c 5.8633,0 9.4197,3.75438 11.8809,12.54102 5.1008,18.21085 5.0639,44.12912 -0.1192,84.4414 -1.0319,8.02618 -3.2399,10.0394 -6.9472,6.33204 -1.2134,-1.21335 -1.348,-4.05278 -0.3868,-8.18946 4.092,-17.61014 0.485,-80.78605 -5.2207,-91.44726 -1.6284,-3.04266 -1.4904,-3.67774 0.793,-3.67774 z m -171.918,7.26563 c 3.3228,-0.3044 7.5993,4.69479 10.8672,12.98633 3.5692,9.05594 3.9084,12.70058 3.8887,41.8164 -0.012,17.5431 -0.5658,34.03091 -1.2305,36.63867 -0.8357,3.27852 -2.3233,4.74024 -4.8203,4.74024 -3.142,0 -3.4729,-0.72792 -2.5508,-5.60352 0.583,-3.0819 1.5526,-15.75992 2.1543,-28.17383 1.1922,-24.59529 -1.6827,-44.33306 -8.0664,-55.39843 -1.7867,-3.09702 -2.4946,-5.99298 -1.6015,-6.54493 0.43,-0.26578 0.8847,-0.41745 1.3593,-0.46093 z m 807.10749,1.35547 c 3.2162,0 6.9981,14.29765 6.9981,26.45117 0,12.96581 -3.125,25.05541 -9.0938,35.17187 -4.5546,7.71941 -6.5142,7.0552 -3.6562,-1.24023 4.0781,-11.83676 6.3181,-31.38767 5.289,-46.16016 -0.545,-7.82328 -0.3362,-14.22265 0.4629,-14.22265 z m -470.80082,5.40039 c 1.11479,-0.14735 2.94858,0.93221 5.82813,3.19726 2.3955,1.88431 13.44009,8.56772 24.54297,14.85157 17.80922,10.07937 20.56892,12.26511 23.42582,18.55664 3.5919,7.91006 4.2352,20.9832 1.5156,30.77539 -0.9781,3.52177 -2.4727,6.83159 -3.3203,7.35547 -1.9477,1.20373 -4.0411,-2.01179 -2.7109,-4.16407 1.8387,-2.97513 -2.6635,-18.08066 -7.13678,-23.94531 -2.43591,-3.19364 -12.05036,-10.73903 -21.36719,-16.76562 -17.24705,-11.15628 -22.28711,-16.96584 -22.28711,-25.69336 0,-2.64565 0.39499,-4.02063 1.50976,-4.16797 z m -276.39257,6.92383 c 2.2307,-0.07 2.4688,3.47453 2.4688,26.25781 0,30.13824 1.9498,42.53391 7.9492,50.52734 2.2656,3.01863 4.1191,6.31462 4.1191,7.32617 0,2.10942 -8.4461,2.44441 -11.5703,0.45899 -5.6959,-3.61981 -7.9995,-14.90308 -8.6895,-42.58399 -0.7515,-30.14998 0.6106,-41.03464 5.2481,-41.92773 0.1669,-0.0322 0.3259,-0.0539 0.4746,-0.0586 z m 893.22659,3.90429 c 0.6657,0.0187 1.2967,0.61026 2.2734,1.78711 1.7731,2.13628 1.7878,3.19266 0.072,5.25977 -1.1805,1.42242 -2.8529,2.58593 -3.7148,2.58593 -2.9138,0 -3.6716,-5.42215 -1.1153,-7.97851 1.118,-1.11799 1.8188,-1.673 2.4844,-1.6543 z m -77.6738,4.92188 c 1.4152,0.0907 6.0665,1.9469 11.2265,4.52539 5.8971,2.94684 12.8762,5.35742 15.5079,5.35742 2.6316,0 6.707,0.7317 9.0566,1.625 3.8553,1.46578 4.1848,2.34764 3.3828,9.05078 -1.2592,10.52449 -5.5467,27.11685 -8.4648,32.75977 -1.3636,2.63701 -4.8716,7.51979 -7.7969,10.85156 -2.9253,3.33176 -5.9592,6.05859 -6.7402,6.05859 -3.3428,0 -11.7806,-13.09106 -14.7891,-22.94336 -2.419,-7.92214 -3.1855,-15.277 -2.9727,-28.49414 0.1578,-9.79858 0.6921,-18.22135 1.1895,-18.71875 0.062,-0.0622 0.1982,-0.0852 0.4004,-0.0723 z m -264.1465,0.89257 c 1.8174,0.0872 5.1913,1.20449 8.8437,3.00196 4.7281,2.32692 12.8374,5.02611 18.0196,5.99804 5.1822,0.97194 10.1403,2.48403 11.0176,3.36133 1.9136,1.91362 -2.5573,27.43903 -6.3555,36.28516 -1.4251,3.31896 -4.9886,9.33115 -7.918,13.36133 -2.9294,4.03017 -5.9917,7.32812 -6.8047,7.32812 -2.951,0 -11.1582,-9.66531 -14.6425,-17.24218 -2.8276,-6.14872 -3.7065,-12.17361 -4.2383,-29.04102 -0.369,-11.70605 0,-21.95882 0.8261,-22.7832 0.2123,-0.21228 0.6462,-0.29858 1.252,-0.26954 z m 338.2715,29.09571 c -1.6947,-0.079 -2.919,0.73344 -5.2344,2.55469 -3.4978,2.75138 -4.3887,4.97244 -4.3887,10.93359 0,6.2362 0.8823,8.22208 5.3047,11.94336 6.6317,5.58013 10.9149,5.64172 16.3242,0.23242 3.0549,-3.05486 4.2325,-6.11362 4.2325,-10.99609 0,-7.45959 -1.2975,-9.02658 -10.6973,-12.91992 -2.6204,-1.08535 -4.2229,-1.68659 -5.541,-1.74805 z m -587.88287,1.51172 c 3.0713,-0.11113 5.21358,2.32021 8.86328,7.67968 7.70486,11.31435 3.62349,29.25057 -8.02734,35.27539 -13.27144,6.86294 -28.53321,-0.79864 -28.53321,-14.32421 0,-8.47693 5.80889,-16.33455 17.69727,-23.93946 4.65951,-2.98065 7.61121,-4.60497 10,-4.6914 z m 589.40237,9.65625 c 0.4041,-0.0228 0.8572,10e-4 1.3574,0.0723 2.8351,0.40264 3.8789,1.70506 3.8789,4.83789 0,4.95852 -5.0202,6.87888 -6.6796,2.55469 -1.857,-4.83918 -1.385,-7.30509 1.4433,-7.46484 z"
     style="fill:#000000;fill-opacity:1;stroke:#000000;stroke-width:1.7241379;stroke-opacity:1" />
  <path
     id="path1867"
     d="m 412.02581,427.6178 v 4.37695 4.375 h 603.83009 603.8281 l -0.3906,-4.0625 -0.3926,-4.0625 -603.4375,-0.3125 z m 115,118.75195 v 3.125 3.125 h 545.62499 545.625 v -3.125 -3.125 h -545.625 z m 0,110 v 3.125 3.125 h 545.62499 545.625 v -3.125 -3.125 h -545.625 z m 0,106.25 v 3.75 3.75 h 545.62499 545.625 v -3.75 -3.75 h -545.625 z m 0,105 v 3.125 3.125 h 545.62499 545.625 v -3.125 -3.125 h -545.625 z m 0,101.25 v 3.75002 3.75 h 545.62499 545.625 v -3.75 -3.75002 h -545.625 z m 0,103.75005 v 3.75 3.75 h 545.62499 545.625 v -3.75 -3.75 h -545.625 z m 0,110 v 3.125 3.125 h 545.62499 545.625 v -3.125 -3.125 h -545.625 z m 0,102.5 v 3.125 3.125 h 545.62499 545.625 v -3.125 -3.125 h -545.625 z m 0,102.5 v 3.75 3.75 h 545.62499 545.625 v -3.75 -3.75 h -545.625 z m 0,108.75 v 3.125 3.125 h 545.62499 545.625 v -3.125 -3.125 h -545.625 z m 0,107.5 v 3.75 3.75 h 545.62499 545.625 v -3.75 -3.75 h -545.625 z m 0,106.25 v 3.125 3.125 h 545.62499 545.625 v -3.125 -3.125 h -545.625 z m 0,102.5 v 3.75 3.75 h 545.62499 545.625 v -3.75 -3.75 h -545.625 z"
     style="fill:#000000;fill-opacity:1;stroke:#000000;stroke-width:1.25;stroke-opacity:1" />
  <path
     id="path1909"
     d="m 414.52581,466.36975 v 43.75 43.75 h 43.75 43.75 v -43.75 -43.75 h -43.75 z m 7.5,7.5 h 36.25 36.25 v 36.25 36.25 h -36.25 -36.25 v -36.25 z m -7.5,102.5 v 43.75 43.75 h 43.75 43.75 v -43.75 -43.75 h -43.75 z m 7.5,7.5 h 36.25 36.25 v 36.25 36.25 h -36.25 -36.25 v -36.25 z m -7.5,98.75 v 43.75 43.75 h 43.75 43.75 v -43.75 -43.75 h -43.75 z m 7.5,7.5 h 36.25 36.25 v 36.25 36.25 h -36.25 -36.25 v -36.25 z m -7.5,97.5 v 43.75 43.75 h 43.75 43.75 v -43.75 -43.75 h -43.75 z m 7.5,7.5 h 36.25 36.25 v 36.25 36.25 h -36.25 -36.25 v -36.25 z m -7.5,93.75 v 43.75 43.75 h 43.75 43.75 v -43.75 -43.75 h -43.75 z m 7.5,7.5 h 36.25 36.25 v 36.25 36.25 h -36.25 -36.25 v -36.25 z m -7.5,97.5 v 43.75005 43.75 h 43.75 43.75 v -43.75 -43.75005 h -43.75 z m 7.5,7.49995 h 36.25 36.25 v 36.2501 36.25 h -36.25 -36.25 v -36.25 z m -7.5,100.0001 v 43.75 43.75 h 43.75 43.75 v -43.75 -43.75 h -43.75 z m 8.125,8.125 h 35.625 35.625 l 0.332,35.9375 0.332,35.9375 h -36.289 -36.2891 l 0.332,-35.9375 z m -8.125,95.625 v 43.75 43.75 h 43.75 43.75 v -43.75 -43.75 h -43.75 z m 7.5,7.5 h 36.25 36.25 v 36.25 36.25 h -36.25 -36.25 v -36.25 z m -7.5,95 v 43.75 43.75 h 43.75 43.75 v -43.75 -43.75 h -43.75 z m 7.5,7.5 h 36.25 36.25 v 36.25 36.25 h -36.25 -36.25 v -36.25 z m -7.5,101.25 v 43.75 43.75 h 43.75 43.75 v -43.75 -43.75 h -43.75 z m 7.5,7.5 h 36.25 36.25 v 36.25 36.25 h -36.25 -36.25 v -36.25 z m -7.5,100 v 43.75 43.75 h 43.75 43.75 v -43.75 -43.75 h -43.75 z m 7.5,7.5 h 36.25 36.25 v 36.25 36.25 h -36.25 -36.25 v -36.25 z m -7.5,100 v 43.75 43.75 h 43.75 43.75 v -43.75 -43.75 h -43.75 z m 7.5,7.5 h 36.25 36.25 v 36.25 36.25 h -36.25 -36.25 v -36.25 z m -7.5,95 v 43.75 43.75 h 43.75 43.75 v -43.75 -43.75 h -43.75 z m 7.5,7.5 h 36.25 36.25 v 36.25 36.25 h -36.25 -36.25 v -36.25 z"
     style="fill:#000000;fill-opacity:1;stroke:#000000;stroke-width:1.25;stroke-opacity:1" />
</svg>
